# xmcd
# 
# Track frame offsets:
#     150
#     14522
#     25177
#     39810
#     50302
#     66857
#     80232
#     95925
#     109955
#     122030
#     134545
#     152500
# 
# Disc length: 2210
# 
# Revision: 3
# Processed by: cddbd v1.5.2PL0 Copyright (c) Steve Scherf et al.
# Submitted via: fre:ac v1.0.17
# 
DISCID=a108a00c
DTITLE=チューリップ - Tulip Garden [Disc 1]
DYEAR=1977
DGENRE=Pop
TTITLE0=魔法の黄色い靴
TTITLE1=ハーモニー
TTITLE2=一人の部屋
TTITLE3=田舎へ引っ越そう
TTITLE4=心の旅
TTITLE5=夢中さ君に
TTITLE6=夏色のおもいで
TTITLE7=しっぽの丸い子犬
TTITLE8=銀の指環
TTITLE9=セプテンバー
TTITLE10=青春の影
TTITLE11=一本の傘
EXTD=YEAR: 1977
EXTT0=
EXTT1=
EXTT2=
EXTT3=
EXTT4=
EXTT5=
EXTT6=
EXTT7=
EXTT8=
EXTT9=
EXTT10=
EXTT11=
PLAYORDER=
